<svg fill="#000000" xmlns="http://www.w3.org/2000/svg"  viewBox="0 0 16 16" width="32px" height="32px"><path d="M 2.5 2 C 1.675781 2 1 2.675781 1 3.5 L 1 12.5 C 1 13.324219 1.675781 14 2.5 14 L 13.5 14 C 14.324219 14 15 13.324219 15 12.5 L 15 3.5 C 15 2.675781 14.324219 2 13.5 2 Z M 2.5 3 L 13.5 3 C 13.78125 3 14 3.21875 14 3.5 L 14 10.292969 L 10.5 6.792969 L 8.5 8.792969 L 5.5 5.792969 L 2 9.292969 L 2 3.5 C 2 3.21875 2.21875 3 2.5 3 Z M 12 4 C 11.449219 4 11 4.449219 11 5 C 11 5.550781 11.449219 6 12 6 C 12.550781 6 13 5.550781 13 5 C 13 4.449219 12.550781 4 12 4 Z M 5.5 7.207031 L 9.148438 10.855469 L 9.851563 10.144531 L 9.207031 9.5 L 10.5 8.207031 L 14 11.707031 L 14 12.5 C 14 12.78125 13.78125 13 13.5 13 L 2.5 13 C 2.21875 13 2 12.78125 2 12.5 L 2 10.707031 Z"/></svg>