<?xml version="1.0" encoding="utf-8"?>
<!-- Generator: Adobe Illustrator 24.1.1, SVG Export Plug-In . SVG Version: 6.00 Build 0)  -->
<svg version="1.1" id="Layer_1" xmlns="http://www.w3.org/2000/svg" x="0px"
     y="0px"
     viewBox="0 0 512 512" style="enable-background:new 0 0 512 512;" xml:space="preserve">
<g>
	<path d="M471.6,40.4H40.4C18.1,40.4,0,58.6,0,80.8v269.5c0,22.3,18.1,40.4,40.4,40.4h202.1v53.9h-94.3c-7.4,0-13.5,6-13.5,13.5
		s6,13.5,13.5,13.5h215.6c7.4,0,13.5-6,13.5-13.5s-6-13.5-13.5-13.5h-94.3v-53.9h202.1c22.3,0,40.4-18.1,40.4-40.4V80.8
		C512,58.6,493.9,40.4,471.6,40.4z M485.1,350.3c0,7.4-6,13.5-13.5,13.5H40.4c-7.4,0-13.5-6-13.5-13.5V80.8c0-7.4,6-13.5,13.5-13.5
		h431.2c7.4,0,13.5,6,13.5,13.5V350.3z"/>
</g>
</svg>
