<svg xmlns="http://www.w3.org/2000/svg" viewBox="5 5 38 38">
    <path fill="#8c9eff" d="m42 45-9-7.001L34 41H10a5 5 0 0 1-5-5V10a5 5 0 0 1 5-5h27a5 5 0 0 1 5 5v35z"/>
    <path fill="#fff"
          d="M32.59 16.24s-2.6-2.01-5.68-2.24l-.27.55c2.78.67 4.05 1.64 5.38 2.83C29.73 16.21 27.46 15 23.5 15s-6.23 1.21-8.52 2.38c1.33-1.19 2.85-2.27 5.38-2.83l-.27-.55c-3.23.31-5.68 2.24-5.68 2.24S11.5 20.43 11 28.62c2.94 3.36 7.39 3.38 7.39 3.38l.92-1.23c-1.57-.54-3.36-1.51-4.9-3.27 1.84 1.38 4.61 2.5 9.09 2.5s7.25-1.12 9.09-2.5c-1.54 1.76-3.33 2.73-4.9 3.27l.92 1.23s4.45-.02 7.39-3.38c-.5-8.19-3.41-12.38-3.41-12.38zM20 27c-1.1 0-2-1.12-2-2.5s.9-2.5 2-2.5 2 1.12 2 2.5-.9 2.5-2 2.5zm7 0c-1.1 0-2-1.12-2-2.5s.9-2.5 2-2.5 2 1.12 2 2.5-.9 2.5-2 2.5z"/>
</svg>