<svg xmlns="http://www.w3.org/2000/svg" viewBox="0 0 470 470">
    <path d="M211.683 151.084a7.502 7.502 0 0 0-10.256-2.705l-51.978 30.281A7.5 7.5 0 0 0 157 191.621l51.978-30.281a7.5 7.5 0 0 0 2.705-10.256zM261.021 161.34l51.978 30.28a7.496 7.496 0 0 0 10.256-2.705 7.5 7.5 0 0 0-2.705-10.256l-51.978-30.28a7.5 7.5 0 0 0-7.551 12.961zM149.551 356.399l51.877 30.223a7.496 7.496 0 0 0 10.256-2.705 7.5 7.5 0 0 0-2.705-10.256l-51.877-30.223a7.498 7.498 0 0 0-10.256 2.705 7.5 7.5 0 0 0 2.705 10.256z"/>
    <path d="M465.642 267.424a7.518 7.518 0 0 0-.235-1.787c-.019-.072-.04-.142-.061-.213a7.52 7.52 0 0 0-.221-.649c-.029-.076-.057-.151-.089-.226a7.497 7.497 0 0 0-.346-.703c-.018-.032-.032-.067-.051-.099a7.58 7.58 0 0 0-.494-.745c-.04-.054-.084-.104-.126-.156a7.486 7.486 0 0 0-1.204-1.21c-.034-.027-.065-.056-.099-.082a7.582 7.582 0 0 0-.756-.51c-.039-.026-107.888-62.857-107.888-62.857V72.5c0-.026-.005-.05-.005-.076a7.518 7.518 0 0 0-.235-1.787c-.019-.072-.04-.142-.061-.213a7.52 7.52 0 0 0-.221-.649c-.029-.076-.057-.151-.089-.226a7.497 7.497 0 0 0-.346-.703c-.018-.032-.032-.067-.051-.099a7.314 7.314 0 0 0-.495-.746c-.039-.052-.082-.101-.122-.152a7.467 7.467 0 0 0-1.215-1.22c-.029-.023-.056-.049-.086-.071-.245-.189-.5-.36-.764-.516-.033-.022-111.607-65.022-111.607-65.022a7.502 7.502 0 0 0-7.551 0l-111.573 65a8.392 8.392 0 0 0-.801.54c-.027.021-.052.044-.079.066a7.397 7.397 0 0 0-1.22 1.226c-.04.051-.083.099-.122.151-.172.23-.335.468-.483.722-.031.056-.045.09-.063.123a7.497 7.497 0 0 0-.346.703c-.032.074-.06.15-.089.226-.084.214-.158.43-.221.649-.021.071-.042.141-.06.213a7.417 7.417 0 0 0-.235 1.787c0 .025-.005.05-.005.076v125.689L8.078 261.02c-.3.18-.553.35-.796.537l-.097.08a7.553 7.553 0 0 0-1.204 1.21c-.042.053-.086.103-.126.157a7.714 7.714 0 0 0-.482.72c-.031.056-.045.09-.063.123a7.497 7.497 0 0 0-.346.703c-.032.074-.06.15-.089.226-.084.214-.158.43-.221.649-.021.071-.042.141-.06.213a7.417 7.417 0 0 0-.235 1.787c0 .025-.005.05-.005.076v130a7.5 7.5 0 0 0 3.725 6.48l111.573 65c.021.012.044.02.065.032.268.153.545.293.833.413.28.116.562.208.85.289.071.02.143.037.215.055.225.056.454.101.687.136.077.012.152.026.229.035.295.035.593.059.897.059s.603-.023.897-.059c.077-.009.152-.023.229-.035.233-.035.462-.08.687-.136.072-.018.144-.035.215-.055.288-.081.57-.173.843-.286.294-.122.571-.262.839-.416.021-.012.044-.02.065-.032L235 406.18l107.798 62.801c.021.012.044.02.065.032.268.153.544.293.832.413a7.652 7.652 0 0 0 1.751.481c.077.012.153.026.23.035.295.035.593.059.897.059s.602-.023.897-.059c.077-.009.153-.023.23-.035.232-.035.461-.08.686-.136.072-.018.144-.035.216-.056.287-.081.569-.173.841-.286.296-.123.572-.263.84-.416.021-.012.044-.02.065-.032l111.573-65a7.502 7.502 0 0 0 3.725-6.48v-130c0-.027-.004-.051-.004-.077zm-22.395.076-96.674 56.32-96.674-56.32 96.674-56.32 96.674 56.32zM130.927 85.549 227.5 141.81v112.64l-96.573-56.261V85.549zm208.146 112.64L242.5 254.451v-112.64l96.573-56.261v112.639zm-111.573 195-96.573 56.262v-112.64L227.5 280.55v112.639zm15-112.64 96.573 56.261v112.64L242.5 393.189v-112.64zM235 16.18l96.674 56.32L235 128.82 138.326 72.5 235 16.18zm-111.573 195 96.674 56.32-96.674 56.32-96.674-56.32 96.674-56.32zM19.354 280.549l96.573 56.261v112.64l-96.573-56.262V280.549zm334.719 168.902v-112.64l96.573-56.261v112.64l-96.573 56.261z"/>
    <path d="M323.156 346.142a7.502 7.502 0 0 0-10.256-2.705l-51.877 30.223a7.5 7.5 0 0 0 7.551 12.961l51.877-30.223a7.5 7.5 0 0 0 2.705-10.256zM100.109 346.084a7.502 7.502 0 0 0-10.256-2.705l-51.877 30.223a7.5 7.5 0 0 0 7.551 12.961l51.877-30.223a7.5 7.5 0 0 0 2.705-10.256zM432.024 373.603l-51.676-30.105a7.498 7.498 0 0 0-10.256 2.705 7.5 7.5 0 0 0 2.705 10.256l51.676 30.105a7.496 7.496 0 0 0 10.256-2.705 7.5 7.5 0 0 0-2.705-10.256z"/>
</svg>