<svg viewBox="0 0 48 48" xmlns="http://www.w3.org/2000/svg">
    <path clip-rule="evenodd"
          d="M35 22H13C7.477 22 3 17.523 3 12S7.477 2 13 2h22c5.522 0 10 4.477 10 10s-4.478 10-10 10zm0-18H13a8 8 0 0 0 0 16h22a8 8 0 0 0 0-16zM13 18a6 6 0 1 1 0-12 6 6 0 0 1 0 12zm0-10a4 4 0 1 0 0 8 4 4 0 0 0 0-8zm0 18h22c5.522 0 10 4.478 10 10s-4.478 10-10 10H13C7.477 46 3 41.522 3 36s4.477-10 10-10zm0 18h22a8 8 0 0 0 0-16H13a8 8 0 0 0 0 16zm22-14a6 6 0 0 1 0 12 6 6 0 0 1 0-12zm0 10a4 4 0 1 0 0-8 4 4 0 0 0 0 8z"
          fill-rule="evenodd"/>
</svg>